# xmcd
#
# Track frame offsets:
#	150
#	13711
#	21831
#	32403
#	44456
#	57645
#	90194
#	107897
#	117512
#	134517
#	149562
#	175030
#	194528
#	223331
#	264924
#	285449
#
# Disc length: 4126 seconds
#
# Revision: 0
# Processed by: cddbd v1.5.2PL0 Copyright (c) Steve Scherf et al.
# Submitted via: SynApp - FreeCDDB Version: 2.3
#
DISCID=ed101c10
DTITLE=Buddy Guy - Can't Quit The Blues [Box Set]
DYEAR=00
DGENRE=Blues
TTITLE0=03 - This Is The End
TTITLE1=04 - Untitled Instrumental
TTITLE2=05 - First Time I Met The Blues
TTITLE3=06 - Ten Years Ago
TTITLE4=07 - Let Me Love You Baby
TTITLE5=08 - Stone Crazy
TTITLE6=09 - When My Left Eye Jumps
TTITLE7=10 - Hoodoo Man Blues
TTITLE8=11 - In The Wee Hours
TTITLE9=12 - I Can't Quit The Blues
TTITLE10=13 - One Room Country Shack
TTITLE11=14 - T-Bone Shuffle
TTITLE12=15 - When You See The Tears From My Eyes (Live)
TTITLE13=16 - I Smell A Rat
TTITLE14=17 - She Suits Me To A T
TTITLE15=18 - D.J. Play My Blues
EXTD=
EXTT0=
EXTT1=
EXTT2=
EXTT3=
EXTT4=
EXTT5=
EXTT6=
EXTT7=
EXTT8=
EXTT9=
EXTT10=
EXTT11=
EXTT12=
EXTT13=
EXTT14=
EXTT15=
PLAYORDER=
